<?xml version="1.0" encoding="UTF-8" standalone="no"?>
<svg
   height="48"
   viewBox="0 96 960 960"
   width="48"
   version="1.1"
   id="svg6501"
   sodipodi:docname="splash.svg"
   inkscape:version="1.2.2 (b0a8486, 2022-12-01)"
   xmlns:inkscape="http://www.inkscape.org/namespaces/inkscape"
   xmlns:sodipodi="http://sodipodi.sourceforge.net/DTD/sodipodi-0.dtd"
   xmlns="http://www.w3.org/2000/svg"
   xmlns:svg="http://www.w3.org/2000/svg">
  <defs
     id="defs6505" />
  <sodipodi:namedview
     id="namedview6503"
     pagecolor="#ffffff"
     bordercolor="#000000"
     borderopacity="0.25"
     inkscape:showpageshadow="2"
     inkscape:pageopacity="0.0"
     inkscape:pagecheckerboard="0"
     inkscape:deskcolor="#d1d1d1"
     showgrid="false"
     inkscape:zoom="17.541667"
     inkscape:cx="24.085511"
     inkscape:cy="24.085511"
     inkscape:window-width="1920"
     inkscape:window-height="992"
     inkscape:window-x="1920"
     inkscape:window-y="0"
     inkscape:window-maximized="1"
     inkscape:current-layer="svg6501" />
  <path
     d="M480 976q-82 0-155-31.5t-127.5-86Q143 804 111.5 731T80 576q0-83 31.5-156t86-127Q252 239 325 207.5T480 176q83 0 156 31.5T763 293q54 54 85.5 127T880 576q0 82-31.5 155T763 858.5q-54 54.5-127 86T480 976Zm0-60q142 0 241-99.5T820 576q0-142-99-241t-241-99q-141 0-240.5 99T140 576q0 141 99.5 240.5T480 916Zm0-340Z"
     id="path6499"
     style="fill:#7eb3d6;fill-opacity:1" />
  <path
     style="fill:#7eb3d6;fill-opacity:1;stroke-width:0.0570071"
     d="M 22.688836,40.929301 C 19.255155,40.662254 15.855999,39.874571 13.236815,37.798796 12.468742,37.190078 10.799521,35.469811 10.200152,34.711446 8.3879761,32.41855 7.6275263,29.45259 7.2158893,26.622328 6.802702,23.781407 6.6668042,20.445309 7.5917553,17.860457 8.9656977,14.020861 11.831955,10.21332 15.600209,8.2888943 c 3.386208,-1.7293168 8.40334,-2.2281372 12.434677,-1.3769709 2.319201,0.4896703 4.977944,1.7981229 6.928008,3.3516746 0.32133,0.255993 1.11303,0.803645 1.518056,1.197818 2.907472,2.829561 4.625154,6.457814 5.106611,10.410601 0.130648,1.072631 -0.605417,3.183287 -0.734352,4.232345 -0.443326,3.60633 -0.976823,6.859123 -3.434459,9.566599 -2.811056,3.096824 -4.682538,5.085393 -8.698351,5.549391 -0.971269,0.112223 -5.178025,-0.224672 -6.031538,-0.291053 z"
     id="path19956"
     transform="matrix(20,0,0,20,0,96)"
     sodipodi:nodetypes="sssssssssscssss" />
</svg>
