<?xml version="1.0" encoding="UTF-8" standalone="no"?>
<svg
   height="48"
   viewBox="0 96 960 960"
   width="48"
   version="1.1"
   id="svg4"
   sodipodi:docname="explosion.svg"
   inkscape:version="1.2.2 (b0a8486, 2022-12-01)"
   xmlns:inkscape="http://www.inkscape.org/namespaces/inkscape"
   xmlns:sodipodi="http://sodipodi.sourceforge.net/DTD/sodipodi-0.dtd"
   xmlns="http://www.w3.org/2000/svg"
   xmlns:svg="http://www.w3.org/2000/svg">
  <defs
     id="defs8" />
  <sodipodi:namedview
     id="namedview6"
     pagecolor="#ffffff"
     bordercolor="#000000"
     borderopacity="0.25"
     inkscape:showpageshadow="2"
     inkscape:pageopacity="0.0"
     inkscape:pagecheckerboard="0"
     inkscape:deskcolor="#d1d1d1"
     showgrid="false"
     inkscape:zoom="17.541667"
     inkscape:cx="24.028504"
     inkscape:cy="24.028504"
     inkscape:window-width="1920"
     inkscape:window-height="1052"
     inkscape:window-x="3840"
     inkscape:window-y="0"
     inkscape:window-maximized="1"
     inkscape:current-layer="svg4" />
  <path
     d="M 481,1027 346,896 H 160 V 710 L 26,576 160,442 V 256 H 346 L 481,122 614,256 H 800 V 442 L 934,576 800,710 V 896 H 614 Z M 484.4427,907.82134 577.6336,812.51177 740,836 719.44403,676.79792 810.61539,574.06682 723.2536,469.71709 730.97628,326.72029 577.72495,338.34043 481.0128,244.96296 371,316 l -139.63866,16.7051 -0.56228,138.17813 -86.18935,109.17366 102.15024,98.43385 -2.15336,143.43312 137.3393,-9.08321 z m -0.80516,-54.27632 85.7876,-75.76898 105.00479,-8.72239 2.61765,-107.92103 73.1541,-80.34568 L 716.05706,467.06874 680.08467,379.0669 555.899,395.899 482.28029,296.49757 404.1,395.899 293.37035,390.54129 277.52804,492.57111 213.51102,576.70194 300,651.857 286.48252,768.61519 402,756 Z"
     id="path2"
     style="fill:#ff5414;fill-opacity:1"
     sodipodi:nodetypes="ccccccccccccccccccccccccccccccccccccccccccccccccccc" />
  <path
     style="fill:#ff5414;fill-opacity:1;stroke-width:0.0570071"
     d="m 21.292162,39.640646 -2.736343,-2.641665 -3.776722,-6.78e-4 -3.776722,-6.78e-4 V 33.192622 29.387619 L 8.3090136,26.69381 5.615652,24 8.3090136,21.30619 11.002375,18.612381 v -3.805003 -3.805003 h 3.797715 l 3.621878,-0.897824 2.880443,-1.7815106 c 1.780805,-1.1014013 2.726615,-2.6793349 2.753515,-2.6793349 0.0269,0 1.237435,1.2056971 2.690078,2.679327 l 2.641169,2.6793265 3.805226,8e-6 3.805226,8e-6 v 3.805003 3.805003 L 39.690986,21.30619 42.384348,24 l -2.693362,2.69381 -2.693361,2.693809 v 3.805003 3.805003 H 33.19201 29.386396 l -1.567307,1.571452 c -0.862019,0.864299 -2.067545,2.053353 -2.678946,2.642342 l -1.111639,1.070891 z m 4.617577,-4.752285 1.880587,-1.881235 h 2.6084 2.6084 v -2.579262 -2.579263 l 1.923676,-1.9243 L 36.854478,24 34.930802,22.075699 33.007126,20.151399 V 17.572136 14.992874 H 30.427864 L 27.1278,15.86789 25.924301,13.069198 24,11.145522 l -1.924301,1.923676 -1.454938,2.926323 -3.048625,-1.002647 h -2.579262 v 2.579262 2.579263 l -1.923676,1.9243 L 11.145522,24 l 1.923676,1.924301 3.87244,1.722127 -1.948764,2.781436 v 2.579262 h 2.528783 l 3.41565,-1.128072 1.072616,3.009307 c 0.5016,1.407278 1.972926,1.881235 1.989356,1.881235 0.01643,0 0.876137,-0.846556 1.91046,-1.881235 z"
     id="path18350"
     transform="matrix(20,0,0,20,0,96)"
     sodipodi:nodetypes="ccccccccccccccssscccccccccccccssccscccccccccccccccccccccccccccccsss" />
</svg>
