<?xml version="1.0" encoding="UTF-8" standalone="no"?>
<svg
   height="48"
   viewBox="0 96 960 960"
   width="48"
   version="1.1"
   id="svg26222"
   sodipodi:docname="fire.svg"
   inkscape:version="1.2.2 (b0a8486, 2022-12-01)"
   xmlns:inkscape="http://www.inkscape.org/namespaces/inkscape"
   xmlns:sodipodi="http://sodipodi.sourceforge.net/DTD/sodipodi-0.dtd"
   xmlns="http://www.w3.org/2000/svg"
   xmlns:svg="http://www.w3.org/2000/svg">
  <defs
     id="defs26226" />
  <sodipodi:namedview
     id="namedview26224"
     pagecolor="#ffffff"
     bordercolor="#000000"
     borderopacity="0.25"
     inkscape:showpageshadow="2"
     inkscape:pageopacity="0.0"
     inkscape:pagecheckerboard="0"
     inkscape:deskcolor="#d1d1d1"
     showgrid="false"
     inkscape:zoom="18.270833"
     inkscape:cx="24"
     inkscape:cy="24.054732"
     inkscape:window-width="1920"
     inkscape:window-height="1052"
     inkscape:window-x="3840"
     inkscape:window-y="0"
     inkscape:window-maximized="1"
     inkscape:current-layer="svg26222" />
  <path
     d="M220 656q0 63 28.5 118.5T328 867q-4-12-6-24.5t-2-24.5q0-32 12-60t35-51l113-111 113 111q23 23 35 51t12 60q0 12-2 24.5t-6 24.5q51-37 79.5-92.5T740 656q0-54-23-105.5T651 456q-21 15-44 23.5t-46 8.5q-61 0-101-41.5T420 342v-20q-46 33-83 73t-63 83.5q-26 43.5-40 89T220 656Zm260 24-71 70q-14 14-21.5 31t-7.5 37q0 41 29 69.5t71 28.5q42 0 71-28.5t29-69.5q0-20-7.5-37T551 750l-71-70Zm0-464v132q0 34 23.5 57t57.5 23q18 0 33.5-7.5T622 398l18-22q74 42 117 117t43 163q0 134-93 227t-227 93q-134 0-227-93t-93-227q0-128 86-246.5T480 216Z"
     id="path26220"
     style="fill:#ff5314;fill-opacity:1" />
  <path
     style="fill:#ff5314;fill-opacity:1;stroke-width:20"
     d="M 302.43411,415.22373 202.9436,617.57505 c 0,0 32.22365,177.18377 28.28705,181.14072 -74.51906,74.90427 201.3873,131.22446 201.3873,131.22446 l 219.11208,-42.93046 92.37448,-103.64791 11.31608,-135.7066 -39.89374,-172.33581 -49.90237,-30.5528 -81.90936,15.09823 -107.89939,-20.41646 -34.41499,-92.80695 -15.82762,-45.88592 z"
     id="path29078"
     sodipodi:nodetypes="ccsccccccccccc" />
</svg>
